<svg xmlns="http://www.w3.org/2000/svg" xmlns:xlink="http://www.w3.org/1999/xlink" width="850" zoomAndPan="magnify" viewBox="0 0 637.5 225" height="300" preserveAspectRatio="xMidYMid meet" version="1.0"><defs><g/><clipPath id="0e965d11bd"><path d="M 0 0.0898438 L 637 0.0898438 L 637 224.910156 L 0 224.910156 Z M 0 0.0898438 " clip-rule="nonzero"/></clipPath><clipPath id="246dbb1248"><path d="M 168.679688 78.75 L 236.125 78.75 L 236.125 146.199219 L 168.679688 146.199219 Z M 168.679688 78.75 " clip-rule="nonzero"/></clipPath><clipPath id="9a6ebc0aec"><path d="M 202 78.75 L 236.125 78.75 L 236.125 113 L 202 113 Z M 202 78.75 " clip-rule="nonzero"/></clipPath></defs><g clip-path="url(#0e965d11bd)"><path fill="#ffffff" d="M 0 0.0898438 L 637 0.0898438 L 637 224.910156 L 0 224.910156 Z M 0 0.0898438 " fill-opacity="1" fill-rule="nonzero"/><path fill="#051036" d="M 0 0.0898438 L 637 0.0898438 L 637 224.910156 L 0 224.910156 Z M 0 0.0898438 " fill-opacity="1" fill-rule="nonzero"/></g><g clip-path="url(#246dbb1248)"><path fill="#ffffff" d="M 202.402344 78.75 L 202.402344 112.472656 L 236.125 112.472656 L 211.675781 121.75 L 202.402344 146.199219 L 193.128906 121.75 L 168.679688 112.472656 L 193.128906 103.199219 Z M 202.402344 78.75 " fill-opacity="1" fill-rule="nonzero"/></g><path fill="#00e5ff" d="M 202.402344 112.472656 L 202.402344 104.042969 C 207.058594 104.042969 210.835938 107.816406 210.835938 112.472656 Z M 202.402344 112.472656 " fill-opacity="1" fill-rule="nonzero"/><path fill="#00e5ff" d="M 202.402344 100.671875 C 208.921875 100.671875 214.207031 105.957031 214.207031 112.472656 L 219.265625 112.472656 C 219.265625 103.160156 211.714844 95.613281 202.402344 95.613281 Z M 202.402344 100.671875 " fill-opacity="1" fill-rule="nonzero"/><path fill="#00e5ff" d="M 202.402344 92.238281 C 213.578125 92.238281 222.636719 101.300781 222.636719 112.472656 L 227.695312 112.472656 C 227.695312 98.503906 216.371094 87.179688 202.402344 87.179688 Z M 202.402344 92.238281 " fill-opacity="1" fill-rule="nonzero"/><g clip-path="url(#9a6ebc0aec)"><path fill="#00e5ff" d="M 202.402344 83.808594 C 218.234375 83.808594 231.070312 96.644531 231.070312 112.472656 L 236.125 112.472656 C 236.125 93.847656 221.027344 78.75 202.402344 78.75 Z M 202.402344 83.808594 " fill-opacity="1" fill-rule="nonzero"/></g><g fill="#ffffff" fill-opacity="1"><g transform="translate(263.544853, 124.327634)"><g><path d="M 16.46875 0 L 14.65625 -5.234375 L 6.84375 -5.234375 L 5.03125 0 L 0.734375 0 L 8.21875 -20.46875 L 13.265625 -20.46875 L 20.71875 0 Z M 10.734375 -17.3125 L 10.65625 -17 C 10.5625 -16.644531 10.441406 -16.242188 10.296875 -15.796875 C 10.160156 -15.359375 9.332031 -12.910156 7.8125 -8.453125 L 13.6875 -8.453125 L 11.671875 -14.34375 L 11.046875 -16.3125 Z M 10.734375 -17.3125 "/></g></g></g><g fill="#ffffff" fill-opacity="1"><g transform="translate(286.178609, 124.327634)"><g><path d="M 18.6875 -5.890625 C 18.6875 -3.890625 17.941406 -2.359375 16.453125 -1.296875 C 14.972656 -0.234375 12.789062 0.296875 9.90625 0.296875 C 7.28125 0.296875 5.222656 -0.164062 3.734375 -1.09375 C 2.242188 -2.03125 1.285156 -3.441406 0.859375 -5.328125 L 5 -6.015625 C 5.28125 -4.929688 5.828125 -4.144531 6.640625 -3.65625 C 7.453125 -3.164062 8.582031 -2.921875 10.03125 -2.921875 C 13.019531 -2.921875 14.515625 -3.832031 14.515625 -5.65625 C 14.515625 -6.226562 14.34375 -6.703125 14 -7.078125 C 13.65625 -7.460938 13.171875 -7.78125 12.546875 -8.03125 C 11.921875 -8.28125 10.722656 -8.585938 8.953125 -8.953125 C 7.421875 -9.304688 6.351562 -9.59375 5.75 -9.8125 C 5.15625 -10.03125 4.613281 -10.285156 4.125 -10.578125 C 3.644531 -10.878906 3.234375 -11.238281 2.890625 -11.65625 C 2.554688 -12.070312 2.289062 -12.554688 2.09375 -13.109375 C 1.90625 -13.671875 1.8125 -14.316406 1.8125 -15.046875 C 1.8125 -16.898438 2.503906 -18.316406 3.890625 -19.296875 C 5.285156 -20.273438 7.3125 -20.765625 9.96875 -20.765625 C 12.507812 -20.765625 14.414062 -20.367188 15.6875 -19.578125 C 16.957031 -18.785156 17.78125 -17.472656 18.15625 -15.640625 L 14 -15.078125 C 13.78125 -15.960938 13.34375 -16.625 12.6875 -17.0625 C 12.039062 -17.507812 11.109375 -17.734375 9.890625 -17.734375 C 7.285156 -17.734375 5.984375 -16.921875 5.984375 -15.296875 C 5.984375 -14.765625 6.117188 -14.328125 6.390625 -13.984375 C 6.671875 -13.648438 7.082031 -13.363281 7.625 -13.125 C 8.164062 -12.882812 9.265625 -12.585938 10.921875 -12.234375 C 12.890625 -11.816406 14.296875 -11.429688 15.140625 -11.078125 C 15.992188 -10.722656 16.664062 -10.3125 17.15625 -9.84375 C 17.65625 -9.375 18.035156 -8.8125 18.296875 -8.15625 C 18.554688 -7.5 18.6875 -6.742188 18.6875 -5.890625 Z M 18.6875 -5.890625 "/></g></g></g><g fill="#ffffff" fill-opacity="1"><g transform="translate(307.170547, 124.327634)"><g><path d="M 11.234375 -17.15625 L 11.234375 0 L 6.953125 0 L 6.953125 -17.15625 L 0.328125 -17.15625 L 0.328125 -20.46875 L 17.859375 -20.46875 L 17.859375 -17.15625 Z M 11.234375 -17.15625 "/></g></g></g><g fill="#ffffff" fill-opacity="1"><g transform="translate(326.491619, 124.327634)"><g><path d="M 16.0625 0 L 11.3125 -7.765625 L 6.28125 -7.765625 L 6.28125 0 L 1.984375 0 L 1.984375 -20.46875 L 12.21875 -20.46875 C 14.664062 -20.46875 16.550781 -19.941406 17.875 -18.890625 C 19.207031 -17.835938 19.875 -16.328125 19.875 -14.359375 C 19.875 -12.929688 19.460938 -11.695312 18.640625 -10.65625 C 17.828125 -9.613281 16.726562 -8.925781 15.34375 -8.59375 L 20.890625 0 Z M 15.546875 -14.1875 C 15.546875 -16.15625 14.285156 -17.140625 11.765625 -17.140625 L 6.28125 -17.140625 L 6.28125 -11.09375 L 11.890625 -11.09375 C 13.085938 -11.09375 13.992188 -11.363281 14.609375 -11.90625 C 15.234375 -12.445312 15.546875 -13.207031 15.546875 -14.1875 Z M 15.546875 -14.1875 "/></g></g></g><g fill="#ffffff" fill-opacity="1"><g transform="translate(349.125375, 124.327634)"><g><path d="M 21.90625 -10.328125 C 21.90625 -8.191406 21.484375 -6.316406 20.640625 -4.703125 C 19.796875 -3.085938 18.585938 -1.847656 17.015625 -0.984375 C 15.453125 -0.128906 13.625 0.296875 11.53125 0.296875 C 8.3125 0.296875 5.785156 -0.648438 3.953125 -2.546875 C 2.128906 -4.441406 1.21875 -7.035156 1.21875 -10.328125 C 1.21875 -13.609375 2.128906 -16.164062 3.953125 -18 C 5.773438 -19.84375 8.304688 -20.765625 11.546875 -20.765625 C 14.796875 -20.765625 17.332031 -19.832031 19.15625 -17.96875 C 20.988281 -16.113281 21.90625 -13.566406 21.90625 -10.328125 Z M 17.53125 -10.328125 C 17.53125 -12.535156 17.003906 -14.265625 15.953125 -15.515625 C 14.910156 -16.773438 13.441406 -17.40625 11.546875 -17.40625 C 9.628906 -17.40625 8.144531 -16.78125 7.09375 -15.53125 C 6.050781 -14.289062 5.53125 -12.554688 5.53125 -10.328125 C 5.53125 -8.078125 6.066406 -6.304688 7.140625 -5.015625 C 8.210938 -3.722656 9.675781 -3.078125 11.53125 -3.078125 C 13.445312 -3.078125 14.925781 -3.707031 15.96875 -4.96875 C 17.007812 -6.226562 17.53125 -8.015625 17.53125 -10.328125 Z M 17.53125 -10.328125 "/></g></g></g><g fill="#ffffff" fill-opacity="1"><g transform="translate(373.415473, 124.327634)"><g><path d="M 1.984375 0 L 1.984375 -20.46875 L 6.28125 -20.46875 L 6.28125 -3.3125 L 17.265625 -3.3125 L 17.265625 0 Z M 1.984375 0 "/></g></g></g><g fill="#ffffff" fill-opacity="1"><g transform="translate(392.736545, 124.327634)"><g><path d="M 1.984375 0 L 1.984375 -20.46875 L 6.28125 -20.46875 L 6.28125 0 Z M 1.984375 0 "/></g></g></g><g fill="#ffffff" fill-opacity="1"><g transform="translate(402.148623, 124.327634)"><g><path d="M 14.46875 0 L 5.53125 -15.765625 C 5.707031 -14.234375 5.796875 -13.003906 5.796875 -12.078125 L 5.796875 0 L 1.984375 0 L 1.984375 -20.46875 L 6.890625 -20.46875 L 15.9375 -4.578125 C 15.769531 -6.035156 15.6875 -7.367188 15.6875 -8.578125 L 15.6875 -20.46875 L 19.484375 -20.46875 L 19.484375 0 Z M 14.46875 0 "/></g></g></g><g fill="#ffffff" fill-opacity="1"><g transform="translate(424.782379, 124.327634)"><g><path d="M 16.15625 0 L 8.8125 -9.40625 L 6.28125 -7.46875 L 6.28125 0 L 1.984375 0 L 1.984375 -20.46875 L 6.28125 -20.46875 L 6.28125 -11.1875 L 15.5 -20.46875 L 20.5 -20.46875 L 11.765625 -11.8125 L 21.21875 0 Z M 16.15625 0 "/></g></g></g></svg>