<svg xmlns="http://www.w3.org/2000/svg" xmlns:xlink="http://www.w3.org/1999/xlink" width="2000" zoomAndPan="magnify" viewBox="0 0 1500 1499.999933" height="2000" preserveAspectRatio="xMidYMid meet" version="1.0"><defs><g/><clipPath id="98bcfea211"><path d="M 391.484375 209.460938 L 1108.484375 209.460938 L 1108.484375 926.460938 L 391.484375 926.460938 Z M 391.484375 209.460938 " clip-rule="nonzero"/></clipPath><clipPath id="1546d16c30"><path d="M 749 209.460938 L 1108.484375 209.460938 L 1108.484375 568 L 749 568 Z M 749 209.460938 " clip-rule="nonzero"/></clipPath></defs><rect x="-150" width="1800" fill="#ffffff" y="-149.999993" height="1799.99992" fill-opacity="1"/><rect x="-150" width="1800" fill="#f4f6fc" y="-149.999993" height="1799.99992" fill-opacity="1"/><g clip-path="url(#98bcfea211)"><path fill="#051036" d="M 749.984375 209.460938 L 749.984375 567.960938 L 1108.484375 567.960938 L 848.574219 666.546875 L 749.984375 926.460938 L 651.398438 666.546875 L 391.484375 567.960938 L 651.398438 469.371094 Z M 749.984375 209.460938 " fill-opacity="1" fill-rule="nonzero"/></g><path fill="#00e5ff" d="M 749.984375 567.960938 L 749.984375 478.335938 C 799.480469 478.335938 839.609375 518.464844 839.609375 567.960938 Z M 749.984375 567.960938 " fill-opacity="1" fill-rule="nonzero"/><path fill="#00e5ff" d="M 749.984375 442.484375 C 819.28125 442.484375 875.460938 498.660156 875.460938 567.960938 L 929.234375 567.960938 C 929.234375 468.964844 848.980469 388.710938 749.984375 388.710938 Z M 749.984375 442.484375 " fill-opacity="1" fill-rule="nonzero"/><path fill="#00e5ff" d="M 749.984375 352.859375 C 868.78125 352.859375 965.085938 449.164062 965.085938 567.960938 L 1018.859375 567.960938 C 1018.859375 419.464844 898.480469 299.085938 749.984375 299.085938 Z M 749.984375 352.859375 " fill-opacity="1" fill-rule="nonzero"/><g clip-path="url(#1546d16c30)"><path fill="#00e5ff" d="M 749.984375 263.234375 C 918.277344 263.234375 1054.710938 399.664062 1054.710938 567.960938 L 1108.484375 567.960938 C 1108.484375 369.96875 947.976562 209.460938 749.984375 209.460938 Z M 749.984375 263.234375 " fill-opacity="1" fill-rule="nonzero"/></g><g fill="#051036" fill-opacity="1"><g transform="translate(152.270008, 1236.916335)"><g><path d="M 96.25 0 L 85.625 -30.5625 L 40.015625 -30.5625 L 29.390625 0 L 4.328125 0 L 48 -119.640625 L 77.5625 -119.640625 L 121.046875 0 Z M 62.78125 -101.21875 L 62.265625 -99.34375 C 61.703125 -97.3125 61.019531 -94.992188 60.21875 -92.390625 C 59.425781 -89.785156 54.554688 -75.460938 45.609375 -49.421875 L 80.015625 -49.421875 L 68.21875 -83.8125 L 64.5625 -95.359375 Z M 62.78125 -101.21875 "/></g></g></g><g fill="#051036" fill-opacity="1"><g transform="translate(284.593029, 1236.916335)"><g><path d="M 109.234375 -34.46875 C 109.234375 -22.75 104.882812 -13.789062 96.1875 -7.59375 C 87.5 -1.394531 74.75 1.703125 57.9375 1.703125 C 42.582031 1.703125 30.546875 -1.015625 21.828125 -6.453125 C 13.109375 -11.890625 7.503906 -20.125 5.015625 -31.15625 L 29.21875 -35.15625 C 30.863281 -28.8125 34.0625 -24.207031 38.8125 -21.34375 C 43.570312 -18.488281 50.171875 -17.0625 58.609375 -17.0625 C 76.109375 -17.0625 84.859375 -22.382812 84.859375 -33.03125 C 84.859375 -36.425781 83.851562 -39.226562 81.84375 -41.4375 C 79.832031 -43.644531 77 -45.484375 73.34375 -46.953125 C 69.695312 -48.429688 62.691406 -50.21875 52.328125 -52.3125 C 43.378906 -54.40625 37.148438 -56.085938 33.640625 -57.359375 C 30.128906 -58.628906 26.957031 -60.128906 24.125 -61.859375 C 21.289062 -63.585938 18.882812 -65.664062 16.90625 -68.09375 C 14.925781 -70.53125 13.382812 -73.390625 12.28125 -76.671875 C 11.175781 -79.960938 10.625 -83.726562 10.625 -87.96875 C 10.625 -98.78125 14.6875 -107.054688 22.8125 -112.796875 C 30.9375 -118.546875 42.753906 -121.421875 58.265625 -121.421875 C 73.109375 -121.421875 84.253906 -119.097656 91.703125 -114.453125 C 99.148438 -109.816406 103.945312 -102.148438 106.09375 -91.453125 L 81.796875 -88.140625 C 80.554688 -93.296875 78.023438 -97.175781 74.203125 -99.78125 C 70.378906 -102.382812 64.898438 -103.6875 57.765625 -103.6875 C 42.585938 -103.6875 35 -98.929688 35 -89.421875 C 35 -86.304688 35.804688 -83.753906 37.421875 -81.765625 C 39.035156 -79.785156 41.425781 -78.101562 44.59375 -76.71875 C 47.769531 -75.332031 54.195312 -73.59375 63.875 -71.5 C 75.375 -69.0625 83.597656 -66.804688 88.546875 -64.734375 C 93.503906 -62.671875 97.425781 -60.265625 100.3125 -57.515625 C 103.207031 -54.773438 105.414062 -51.492188 106.9375 -47.671875 C 108.46875 -43.859375 109.234375 -39.457031 109.234375 -34.46875 Z M 109.234375 -34.46875 "/></g></g></g><g fill="#051036" fill-opacity="1"><g transform="translate(407.317411, 1236.916335)"><g><path d="M 65.65625 -100.28125 L 65.65625 0 L 40.609375 0 L 40.609375 -100.28125 L 1.953125 -100.28125 L 1.953125 -119.640625 L 104.390625 -119.640625 L 104.390625 -100.28125 Z M 65.65625 -100.28125 "/></g></g></g><g fill="#051036" fill-opacity="1"><g transform="translate(520.273242, 1236.916335)"><g><path d="M 93.859375 0 L 66.09375 -45.421875 L 36.703125 -45.421875 L 36.703125 0 L 11.640625 0 L 11.640625 -119.640625 L 71.4375 -119.640625 C 85.707031 -119.640625 96.722656 -116.566406 104.484375 -110.421875 C 112.242188 -104.285156 116.125 -95.472656 116.125 -83.984375 C 116.125 -75.597656 113.742188 -68.363281 108.984375 -62.28125 C 104.222656 -56.195312 97.796875 -52.191406 89.703125 -50.265625 L 122.0625 0 Z M 90.890625 -82.96875 C 90.890625 -94.457031 83.53125 -100.203125 68.8125 -100.203125 L 36.703125 -100.203125 L 36.703125 -64.875 L 69.484375 -64.875 C 76.503906 -64.875 81.828125 -66.457031 85.453125 -69.625 C 89.078125 -72.800781 90.890625 -77.25 90.890625 -82.96875 Z M 90.890625 -82.96875 "/></g></g></g><g fill="#051036" fill-opacity="1"><g transform="translate(652.596278, 1236.916335)"><g><path d="M 128.015625 -60.375 C 128.015625 -47.914062 125.550781 -36.957031 120.625 -27.5 C 115.695312 -18.050781 108.644531 -10.820312 99.46875 -5.8125 C 90.289062 -0.800781 79.585938 1.703125 67.359375 1.703125 C 48.554688 1.703125 33.816406 -3.828125 23.140625 -14.890625 C 12.472656 -25.960938 7.140625 -41.125 7.140625 -60.375 C 7.140625 -79.5625 12.460938 -94.53125 23.109375 -105.28125 C 33.753906 -116.039062 48.5625 -121.421875 67.53125 -121.421875 C 86.5 -121.421875 101.320312 -115.988281 112 -105.125 C 122.675781 -94.257812 128.015625 -79.34375 128.015625 -60.375 Z M 102.4375 -60.375 C 102.4375 -73.28125 99.378906 -83.398438 93.265625 -90.734375 C 87.148438 -98.066406 78.570312 -101.734375 67.53125 -101.734375 C 56.320312 -101.734375 47.65625 -98.09375 41.53125 -90.8125 C 35.414062 -83.539062 32.359375 -73.394531 32.359375 -60.375 C 32.359375 -47.238281 35.488281 -36.890625 41.75 -29.328125 C 48.007812 -21.773438 56.546875 -18 67.359375 -18 C 78.578125 -18 87.226562 -21.675781 93.3125 -29.03125 C 99.394531 -36.394531 102.4375 -46.84375 102.4375 -60.375 Z M 102.4375 -60.375 "/></g></g></g><g fill="#051036" fill-opacity="1"><g transform="translate(794.602886, 1236.916335)"><g><path d="M 11.640625 0 L 11.640625 -119.640625 L 36.703125 -119.640625 L 36.703125 -19.359375 L 100.921875 -19.359375 L 100.921875 0 Z M 11.640625 0 "/></g></g></g><g fill="#051036" fill-opacity="1"><g transform="translate(907.558717, 1236.916335)"><g><path d="M 11.640625 0 L 11.640625 -119.640625 L 36.703125 -119.640625 L 36.703125 0 Z M 11.640625 0 "/></g></g></g><g fill="#051036" fill-opacity="1"><g transform="translate(962.582867, 1236.916335)"><g><path d="M 84.515625 0 L 32.359375 -92.140625 C 33.378906 -83.191406 33.890625 -76 33.890625 -70.5625 L 33.890625 0 L 11.640625 0 L 11.640625 -119.640625 L 40.265625 -119.640625 L 93.1875 -26.75 C 92.164062 -35.300781 91.65625 -43.082031 91.65625 -50.09375 L 91.65625 -119.640625 L 113.90625 -119.640625 L 113.90625 0 Z M 84.515625 0 "/></g></g></g><g fill="#051036" fill-opacity="1"><g transform="translate(1094.905948, 1236.916335)"><g><path d="M 94.453125 0 L 51.484375 -54.9375 L 36.703125 -43.640625 L 36.703125 0 L 11.640625 0 L 11.640625 -119.640625 L 36.703125 -119.640625 L 36.703125 -65.390625 L 90.640625 -119.640625 L 119.859375 -119.640625 L 68.71875 -69.03125 L 124.015625 0 Z M 94.453125 0 "/></g></g></g></svg>