<svg xmlns="http://www.w3.org/2000/svg" xmlns:xlink="http://www.w3.org/1999/xlink" width="2000" zoomAndPan="magnify" viewBox="0 0 1500 1499.999933" height="2000" preserveAspectRatio="xMidYMid meet" version="1.0"><defs><g/><clipPath id="cdd22867dd"><path d="M 150 631.082031 L 387.75 631.082031 L 387.75 868.832031 L 150 868.832031 Z M 150 631.082031 " clip-rule="nonzero"/></clipPath><clipPath id="4da45dc838"><path d="M 268 631.082031 L 387.75 631.082031 L 387.75 750 L 268 750 Z M 268 631.082031 " clip-rule="nonzero"/></clipPath></defs><rect x="-150" width="1800" fill="#ffffff" y="-149.999993" height="1799.99992" fill-opacity="1"/><rect x="-150" width="1800" fill="#f4f6fc" y="-149.999993" height="1799.99992" fill-opacity="1"/><g clip-path="url(#cdd22867dd)"><path fill="#051036" d="M 268.875 631.082031 L 268.875 749.957031 L 387.75 749.957031 L 301.566406 782.648438 L 268.875 868.832031 L 236.183594 782.648438 L 150 749.957031 L 236.183594 717.265625 Z M 268.875 631.082031 " fill-opacity="1" fill-rule="nonzero"/></g><path fill="#00e5ff" d="M 268.875 749.957031 L 268.875 720.238281 C 285.289062 720.238281 298.59375 733.542969 298.59375 749.957031 Z M 268.875 749.957031 " fill-opacity="1" fill-rule="nonzero"/><path fill="#00e5ff" d="M 268.875 708.351562 C 291.851562 708.351562 310.480469 726.976562 310.480469 749.957031 L 328.3125 749.957031 C 328.3125 717.132812 301.699219 690.519531 268.875 690.519531 Z M 268.875 708.351562 " fill-opacity="1" fill-rule="nonzero"/><path fill="#00e5ff" d="M 268.875 678.632812 C 308.265625 678.632812 340.199219 710.566406 340.199219 749.957031 L 358.03125 749.957031 C 358.03125 700.71875 318.113281 660.800781 268.875 660.800781 Z M 268.875 678.632812 " fill-opacity="1" fill-rule="nonzero"/><g clip-path="url(#4da45dc838)"><path fill="#00e5ff" d="M 268.875 648.914062 C 324.679688 648.914062 369.917969 694.152344 369.917969 749.957031 L 387.75 749.957031 C 387.75 684.304688 334.527344 631.082031 268.875 631.082031 Z M 268.875 648.914062 " fill-opacity="1" fill-rule="nonzero"/></g><g fill="#051036" fill-opacity="1"><g transform="translate(484.536698, 799.732472)"><g><path d="M 69.53125 0 L 61.859375 -22.0625 L 28.90625 -22.0625 L 21.234375 0 L 3.125 0 L 34.671875 -86.359375 L 56.03125 -86.359375 L 87.453125 0 Z M 45.359375 -73.046875 L 44.984375 -71.703125 C 44.578125 -70.234375 44.085938 -68.554688 43.515625 -66.671875 C 42.941406 -64.796875 39.421875 -54.460938 32.953125 -35.671875 L 57.8125 -35.671875 L 49.28125 -60.484375 L 46.640625 -68.828125 Z M 45.359375 -73.046875 "/></g></g></g><g fill="#051036" fill-opacity="1"><g transform="translate(580.141594, 799.732472)"><g><path d="M 78.921875 -24.875 C 78.921875 -16.425781 75.78125 -9.960938 69.5 -5.484375 C 63.21875 -1.015625 54.003906 1.21875 41.859375 1.21875 C 30.765625 1.21875 22.066406 -0.738281 15.765625 -4.65625 C 9.472656 -8.582031 5.425781 -14.53125 3.625 -22.5 L 21.109375 -25.375 C 22.296875 -20.800781 24.609375 -17.476562 28.046875 -15.40625 C 31.484375 -13.34375 36.25 -12.3125 42.34375 -12.3125 C 54.988281 -12.3125 61.3125 -16.15625 61.3125 -23.84375 C 61.3125 -26.289062 60.582031 -28.3125 59.125 -29.90625 C 57.675781 -31.5 55.628906 -32.828125 52.984375 -33.890625 C 50.347656 -34.953125 45.285156 -36.238281 37.796875 -37.75 C 31.335938 -39.257812 26.835938 -40.472656 24.296875 -41.390625 C 21.765625 -42.316406 19.472656 -43.398438 17.421875 -44.640625 C 15.378906 -45.890625 13.640625 -47.390625 12.203125 -49.140625 C 10.773438 -50.898438 9.660156 -52.960938 8.859375 -55.328125 C 8.066406 -57.703125 7.671875 -60.425781 7.671875 -63.5 C 7.671875 -71.300781 10.601562 -77.273438 16.46875 -81.421875 C 22.34375 -85.566406 30.882812 -87.640625 42.09375 -87.640625 C 52.8125 -87.640625 60.859375 -85.960938 66.234375 -82.609375 C 71.617188 -79.265625 75.09375 -73.726562 76.65625 -66 L 59.09375 -63.609375 C 58.195312 -67.328125 56.367188 -70.125 53.609375 -72 C 50.847656 -73.882812 46.890625 -74.828125 41.734375 -74.828125 C 30.765625 -74.828125 25.28125 -71.394531 25.28125 -64.53125 C 25.28125 -62.289062 25.863281 -60.453125 27.03125 -59.015625 C 28.195312 -57.585938 29.925781 -56.375 32.21875 -55.375 C 34.507812 -54.375 39.15625 -53.117188 46.15625 -51.609375 C 54.457031 -49.847656 60.394531 -48.222656 63.96875 -46.734375 C 67.550781 -45.242188 70.382812 -43.503906 72.46875 -41.515625 C 74.5625 -39.535156 76.160156 -37.164062 77.265625 -34.40625 C 78.367188 -31.65625 78.921875 -28.476562 78.921875 -24.875 Z M 78.921875 -24.875 "/></g></g></g><g fill="#051036" fill-opacity="1"><g transform="translate(668.811345, 799.732472)"><g><path d="M 47.4375 -72.375 L 47.4375 0 L 29.328125 0 L 29.328125 -72.375 L 1.40625 -72.375 L 1.40625 -86.359375 L 75.421875 -86.359375 L 75.421875 -72.375 Z M 47.4375 -72.375 "/></g></g></g><g fill="#051036" fill-opacity="1"><g transform="translate(750.423216, 799.732472)"><g><path d="M 67.8125 0 L 47.75 -32.78125 L 26.515625 -32.78125 L 26.515625 0 L 8.40625 0 L 8.40625 -86.359375 L 51.609375 -86.359375 C 61.921875 -86.359375 69.878906 -84.140625 75.484375 -79.703125 C 81.085938 -75.265625 83.890625 -68.898438 83.890625 -60.609375 C 83.890625 -54.566406 82.171875 -49.347656 78.734375 -44.953125 C 75.296875 -40.554688 70.65625 -37.664062 64.8125 -36.28125 L 88.1875 0 Z M 65.671875 -59.875 C 65.671875 -68.164062 60.347656 -72.3125 49.703125 -72.3125 L 26.515625 -72.3125 L 26.515625 -46.828125 L 50.203125 -46.828125 C 55.273438 -46.828125 59.117188 -47.96875 61.734375 -50.25 C 64.359375 -52.539062 65.671875 -55.75 65.671875 -59.875 Z M 65.671875 -59.875 "/></g></g></g><g fill="#051036" fill-opacity="1"><g transform="translate(846.028112, 799.732472)"><g><path d="M 92.484375 -43.578125 C 92.484375 -34.585938 90.703125 -26.679688 87.140625 -19.859375 C 83.585938 -13.035156 78.492188 -7.816406 71.859375 -4.203125 C 65.234375 -0.585938 57.503906 1.21875 48.671875 1.21875 C 35.085938 1.21875 24.4375 -2.769531 16.71875 -10.75 C 9.007812 -18.738281 5.15625 -29.679688 5.15625 -43.578125 C 5.15625 -57.421875 9 -68.222656 16.6875 -75.984375 C 24.382812 -83.753906 35.085938 -87.640625 48.796875 -87.640625 C 62.492188 -87.640625 73.195312 -83.71875 80.90625 -75.875 C 88.625 -68.03125 92.484375 -57.265625 92.484375 -43.578125 Z M 74.015625 -43.578125 C 74.015625 -52.890625 71.800781 -60.191406 67.375 -65.484375 C 62.957031 -70.773438 56.765625 -73.421875 48.796875 -73.421875 C 40.691406 -73.421875 34.425781 -70.796875 30 -65.546875 C 25.582031 -60.296875 23.375 -52.972656 23.375 -43.578125 C 23.375 -34.097656 25.632812 -26.628906 30.15625 -21.171875 C 34.675781 -15.722656 40.847656 -13 48.671875 -13 C 56.765625 -13 63.007812 -15.648438 67.40625 -20.953125 C 71.8125 -26.265625 74.015625 -33.804688 74.015625 -43.578125 Z M 74.015625 -43.578125 "/></g></g></g><g fill="#051036" fill-opacity="1"><g transform="translate(948.629509, 799.732472)"><g><path d="M 8.40625 0 L 8.40625 -86.359375 L 26.515625 -86.359375 L 26.515625 -13.96875 L 72.90625 -13.96875 L 72.90625 0 Z M 8.40625 0 "/></g></g></g><g fill="#051036" fill-opacity="1"><g transform="translate(1030.241403, 799.732472)"><g><path d="M 8.40625 0 L 8.40625 -86.359375 L 26.515625 -86.359375 L 26.515625 0 Z M 8.40625 0 "/></g></g></g><g fill="#051036" fill-opacity="1"><g transform="translate(1069.996911, 799.732472)"><g><path d="M 61.0625 0 L 23.375 -66.5 C 24.113281 -60.039062 24.484375 -54.847656 24.484375 -50.921875 L 24.484375 0 L 8.40625 0 L 8.40625 -86.359375 L 29.09375 -86.359375 L 67.328125 -19.3125 C 66.585938 -25.476562 66.21875 -31.09375 66.21875 -36.15625 L 66.21875 -86.359375 L 82.296875 -86.359375 L 82.296875 0 Z M 61.0625 0 "/></g></g></g><g fill="#051036" fill-opacity="1"><g transform="translate(1165.601853, 799.732472)"><g><path d="M 68.25 0 L 37.1875 -39.65625 L 26.515625 -31.5 L 26.515625 0 L 8.40625 0 L 8.40625 -86.359375 L 26.515625 -86.359375 L 26.515625 -47.1875 L 65.484375 -86.359375 L 86.59375 -86.359375 L 49.65625 -49.828125 L 89.59375 0 Z M 68.25 0 "/></g></g></g></svg>