<svg xmlns="http://www.w3.org/2000/svg" xmlns:xlink="http://www.w3.org/1999/xlink" width="850" zoomAndPan="magnify" viewBox="0 0 637.5 225" height="300" preserveAspectRatio="xMidYMid meet" version="1.0"><defs><g/><clipPath id="7c3fa777b3"><path d="M 0 0.0898438 L 637 0.0898438 L 637 224.910156 L 0 224.910156 Z M 0 0.0898438 " clip-rule="nonzero"/></clipPath><clipPath id="da38a272a2"><path d="M 169.472656 82.964844 L 228.679688 82.964844 L 228.679688 142.167969 L 169.472656 142.167969 Z M 169.472656 82.964844 " clip-rule="nonzero"/></clipPath><clipPath id="1d2c234b2b"><path d="M 199 82.964844 L 228.679688 82.964844 L 228.679688 113 L 199 113 Z M 199 82.964844 " clip-rule="nonzero"/></clipPath></defs><g clip-path="url(#7c3fa777b3)"><path fill="#ffffff" d="M 0 0.0898438 L 637 0.0898438 L 637 224.910156 L 0 224.910156 Z M 0 0.0898438 " fill-opacity="1" fill-rule="nonzero"/><path fill="#f4f6fc" d="M 0 0.0898438 L 637 0.0898438 L 637 224.910156 L 0 224.910156 Z M 0 0.0898438 " fill-opacity="1" fill-rule="nonzero"/></g><g clip-path="url(#da38a272a2)"><path fill="#051036" d="M 199.078125 82.964844 L 199.078125 112.566406 L 228.679688 112.566406 L 207.214844 120.707031 L 199.078125 142.167969 L 190.9375 120.707031 L 169.472656 112.566406 L 190.9375 104.425781 Z M 199.078125 82.964844 " fill-opacity="1" fill-rule="nonzero"/></g><path fill="#00e5ff" d="M 199.078125 112.566406 L 199.078125 105.164062 C 203.164062 105.164062 206.476562 108.476562 206.476562 112.566406 Z M 199.078125 112.566406 " fill-opacity="1" fill-rule="nonzero"/><path fill="#00e5ff" d="M 199.078125 102.203125 C 204.796875 102.203125 209.4375 106.84375 209.4375 112.566406 L 213.878906 112.566406 C 213.878906 104.390625 207.25 97.765625 199.078125 97.765625 Z M 199.078125 102.203125 " fill-opacity="1" fill-rule="nonzero"/><path fill="#00e5ff" d="M 199.078125 94.804688 C 208.886719 94.804688 216.835938 102.757812 216.835938 112.566406 L 221.277344 112.566406 C 221.277344 100.304688 211.335938 90.363281 199.078125 90.363281 Z M 199.078125 94.804688 " fill-opacity="1" fill-rule="nonzero"/><g clip-path="url(#1d2c234b2b)"><path fill="#00e5ff" d="M 199.078125 87.402344 C 212.972656 87.402344 224.238281 98.667969 224.238281 112.566406 L 228.679688 112.566406 C 228.679688 96.21875 215.425781 82.964844 199.078125 82.964844 Z M 199.078125 87.402344 " fill-opacity="1" fill-rule="nonzero"/></g><g fill="#051036" fill-opacity="1"><g transform="translate(252.569877, 125.04879)"><g><path d="M 17.25 0 L 15.34375 -5.515625 L 7.171875 -5.515625 L 5.265625 0 L 0.78125 0 L 8.59375 -21.5625 L 13.890625 -21.5625 L 21.6875 0 Z M 11.25 -18.25 L 11.15625 -17.90625 C 11.050781 -17.539062 10.925781 -17.125 10.78125 -16.65625 C 10.644531 -16.1875 9.773438 -13.601562 8.171875 -8.90625 L 14.34375 -8.90625 L 12.21875 -15.109375 L 11.5625 -17.1875 Z M 11.25 -18.25 "/></g></g></g><g fill="#051036" fill-opacity="1"><g transform="translate(276.275633, 125.04879)"><g><path d="M 19.578125 -6.21875 C 19.578125 -4.101562 18.796875 -2.484375 17.234375 -1.359375 C 15.679688 -0.242188 13.394531 0.3125 10.375 0.3125 C 7.625 0.3125 5.46875 -0.175781 3.90625 -1.15625 C 2.34375 -2.132812 1.335938 -3.617188 0.890625 -5.609375 L 5.234375 -6.34375 C 5.523438 -5.195312 6.097656 -4.363281 6.953125 -3.84375 C 7.804688 -3.332031 8.988281 -3.078125 10.5 -3.078125 C 13.632812 -3.078125 15.203125 -4.035156 15.203125 -5.953125 C 15.203125 -6.566406 15.019531 -7.070312 14.65625 -7.46875 C 14.300781 -7.863281 13.796875 -8.191406 13.140625 -8.453125 C 12.484375 -8.722656 11.226562 -9.046875 9.375 -9.421875 C 7.769531 -9.804688 6.648438 -10.113281 6.015625 -10.34375 C 5.390625 -10.570312 4.820312 -10.835938 4.3125 -11.140625 C 3.8125 -11.453125 3.382812 -11.828125 3.03125 -12.265625 C 2.675781 -12.710938 2.398438 -13.226562 2.203125 -13.8125 C 2.003906 -14.40625 1.90625 -15.085938 1.90625 -15.859375 C 1.90625 -17.804688 2.628906 -19.296875 4.078125 -20.328125 C 5.535156 -21.367188 7.65625 -21.890625 10.4375 -21.890625 C 13.09375 -21.890625 15.085938 -21.46875 16.421875 -20.625 C 17.765625 -19.789062 18.628906 -18.410156 19.015625 -16.484375 L 14.65625 -15.890625 C 14.4375 -16.816406 13.984375 -17.515625 13.296875 -17.984375 C 12.609375 -18.453125 11.625 -18.6875 10.34375 -18.6875 C 7.625 -18.6875 6.265625 -17.828125 6.265625 -16.109375 C 6.265625 -15.554688 6.410156 -15.097656 6.703125 -14.734375 C 6.992188 -14.378906 7.421875 -14.078125 7.984375 -13.828125 C 8.554688 -13.578125 9.710938 -13.265625 11.453125 -12.890625 C 13.503906 -12.453125 14.972656 -12.046875 15.859375 -11.671875 C 16.753906 -11.296875 17.457031 -10.859375 17.96875 -10.359375 C 18.488281 -9.867188 18.882812 -9.28125 19.15625 -8.59375 C 19.4375 -7.90625 19.578125 -7.113281 19.578125 -6.21875 Z M 19.578125 -6.21875 "/></g></g></g><g fill="#051036" fill-opacity="1"><g transform="translate(298.261814, 125.04879)"><g><path d="M 11.765625 -18.078125 L 11.765625 0 L 7.28125 0 L 7.28125 -18.078125 L 0.34375 -18.078125 L 0.34375 -21.5625 L 18.703125 -21.5625 L 18.703125 -18.078125 Z M 11.765625 -18.078125 "/></g></g></g><g fill="#051036" fill-opacity="1"><g transform="translate(318.497999, 125.04879)"><g><path d="M 16.8125 0 L 11.84375 -8.1875 L 6.578125 -8.1875 L 6.578125 0 L 2.078125 0 L 2.078125 -21.5625 L 12.796875 -21.5625 C 15.359375 -21.5625 17.332031 -21.007812 18.71875 -19.90625 C 20.113281 -18.800781 20.8125 -17.210938 20.8125 -15.140625 C 20.8125 -13.628906 20.382812 -12.320312 19.53125 -11.21875 C 18.675781 -10.125 17.523438 -9.40625 16.078125 -9.0625 L 21.875 0 Z M 16.28125 -14.953125 C 16.28125 -17.023438 14.960938 -18.0625 12.328125 -18.0625 L 6.578125 -18.0625 L 6.578125 -11.6875 L 12.453125 -11.6875 C 13.710938 -11.6875 14.664062 -11.972656 15.3125 -12.546875 C 15.957031 -13.117188 16.28125 -13.921875 16.28125 -14.953125 Z M 16.28125 -14.953125 "/></g></g></g><g fill="#051036" fill-opacity="1"><g transform="translate(342.203754, 125.04879)"><g><path d="M 22.9375 -10.875 C 22.9375 -8.632812 22.492188 -6.660156 21.609375 -4.953125 C 20.734375 -3.253906 19.472656 -1.953125 17.828125 -1.046875 C 16.179688 -0.140625 14.257812 0.3125 12.0625 0.3125 C 8.695312 0.3125 6.054688 -0.679688 4.140625 -2.671875 C 2.234375 -4.671875 1.28125 -7.40625 1.28125 -10.875 C 1.28125 -14.332031 2.234375 -17.03125 4.140625 -18.96875 C 6.046875 -20.914062 8.695312 -21.890625 12.09375 -21.890625 C 15.5 -21.890625 18.15625 -20.910156 20.0625 -18.953125 C 21.976562 -16.992188 22.9375 -14.300781 22.9375 -10.875 Z M 18.359375 -10.875 C 18.359375 -13.207031 17.804688 -15.03125 16.703125 -16.34375 C 15.609375 -17.664062 14.070312 -18.328125 12.09375 -18.328125 C 10.09375 -18.328125 8.539062 -17.671875 7.4375 -16.359375 C 6.34375 -15.054688 5.796875 -13.226562 5.796875 -10.875 C 5.796875 -8.507812 6.351562 -6.644531 7.46875 -5.28125 C 8.59375 -3.925781 10.125 -3.25 12.0625 -3.25 C 14.070312 -3.25 15.625 -3.910156 16.71875 -5.234375 C 17.8125 -6.554688 18.359375 -8.4375 18.359375 -10.875 Z M 18.359375 -10.875 "/></g></g></g><g fill="#051036" fill-opacity="1"><g transform="translate(367.644295, 125.04879)"><g><path d="M 2.078125 0 L 2.078125 -21.5625 L 6.578125 -21.5625 L 6.578125 -3.484375 L 18.078125 -3.484375 L 18.078125 0 Z M 2.078125 0 "/></g></g></g><g fill="#051036" fill-opacity="1"><g transform="translate(387.88048, 125.04879)"><g><path d="M 2.078125 0 L 2.078125 -21.5625 L 6.578125 -21.5625 L 6.578125 0 Z M 2.078125 0 "/></g></g></g><g fill="#051036" fill-opacity="1"><g transform="translate(397.738385, 125.04879)"><g><path d="M 15.140625 0 L 5.796875 -16.609375 C 5.984375 -14.992188 6.078125 -13.695312 6.078125 -12.71875 L 6.078125 0 L 2.078125 0 L 2.078125 -21.5625 L 7.21875 -21.5625 L 16.703125 -4.828125 C 16.515625 -6.359375 16.421875 -7.757812 16.421875 -9.03125 L 16.421875 -21.5625 L 20.40625 -21.5625 L 20.40625 0 Z M 15.140625 0 "/></g></g></g><g fill="#051036" fill-opacity="1"><g transform="translate(421.444141, 125.04879)"><g><path d="M 16.921875 0 L 9.21875 -9.90625 L 6.578125 -7.859375 L 6.578125 0 L 2.078125 0 L 2.078125 -21.5625 L 6.578125 -21.5625 L 6.578125 -11.78125 L 16.234375 -21.5625 L 21.46875 -21.5625 L 12.3125 -12.4375 L 22.21875 0 Z M 16.921875 0 "/></g></g></g></svg>