<svg xmlns="http://www.w3.org/2000/svg" xmlns:xlink="http://www.w3.org/1999/xlink" width="2000" zoomAndPan="magnify" viewBox="0 0 1500 1499.999933" height="2000" preserveAspectRatio="xMidYMid meet" version="1.0"><rect x="-150" width="1800" fill="#ffffff" y="-149.999993" height="1799.99992" fill-opacity="1"/><rect x="-150" width="1800" fill="#051036" y="-149.999993" height="1799.99992" fill-opacity="1"/><path fill="#ffffff" d="M 750 150 L 750 750 L 1350 750 L 915 915 L 750 1350 L 585 915 L 150 750 L 585 585 Z M 750 150 " fill-opacity="1" fill-rule="nonzero"/><path fill="#00e5ff" d="M 750 750 L 750 600 C 832.839844 600 900 667.164062 900 750 Z M 750 750 " fill-opacity="1" fill-rule="nonzero"/><path fill="#00e5ff" d="M 750 540 C 865.972656 540 960 634.019531 960 750 L 1050 750 C 1050 584.316406 915.683594 450 750 450 Z M 750 540 " fill-opacity="1" fill-rule="nonzero"/><path fill="#00e5ff" d="M 750 390 C 948.816406 390 1110 551.183594 1110 750 L 1200 750 C 1200 501.472656 998.527344 300 750 300 Z M 750 390 " fill-opacity="1" fill-rule="nonzero"/><path fill="#00e5ff" d="M 750 240 C 1031.664062 240 1260 468.335938 1260 750 L 1350 750 C 1350 418.636719 1081.367188 150 750 150 Z M 750 240 " fill-opacity="1" fill-rule="nonzero"/></svg>