<svg xmlns="http://www.w3.org/2000/svg" xmlns:xlink="http://www.w3.org/1999/xlink" width="2000" zoomAndPan="magnify" viewBox="0 0 1500 1499.999933" height="2000" preserveAspectRatio="xMidYMid meet" version="1.0"><defs><g/><clipPath id="8c85adfc44"><path d="M 150 614.839844 L 420 614.839844 L 420 884.839844 L 150 884.839844 Z M 150 614.839844 " clip-rule="nonzero"/></clipPath><clipPath id="5cb4fe69c3"><path d="M 285 614.839844 L 420 614.839844 L 420 750 L 285 750 Z M 285 614.839844 " clip-rule="nonzero"/></clipPath></defs><rect x="-150" width="1800" fill="#ffffff" y="-149.999993" height="1799.99992" fill-opacity="1"/><rect x="-150" width="1800" fill="#051036" y="-149.999993" height="1799.99992" fill-opacity="1"/><g clip-path="url(#8c85adfc44)"><path fill="#ffffff" d="M 285 614.839844 L 285 749.839844 L 420 749.839844 L 322.125 786.964844 L 285 884.839844 L 247.875 786.964844 L 150 749.839844 L 247.875 712.714844 Z M 285 614.839844 " fill-opacity="1" fill-rule="nonzero"/></g><path fill="#00e5ff" d="M 285 749.839844 L 285 716.089844 C 303.636719 716.089844 318.75 731.203125 318.75 749.839844 Z M 285 749.839844 " fill-opacity="1" fill-rule="nonzero"/><path fill="#00e5ff" d="M 285 702.589844 C 311.09375 702.589844 332.25 723.746094 332.25 749.839844 L 352.5 749.839844 C 352.5 712.5625 322.277344 682.339844 285 682.339844 Z M 285 702.589844 " fill-opacity="1" fill-rule="nonzero"/><path fill="#00e5ff" d="M 285 668.839844 C 329.734375 668.839844 366 705.105469 366 749.839844 L 386.25 749.839844 C 386.25 693.921875 340.917969 648.589844 285 648.589844 Z M 285 668.839844 " fill-opacity="1" fill-rule="nonzero"/><g clip-path="url(#5cb4fe69c3)"><path fill="#00e5ff" d="M 285 635.089844 C 348.375 635.089844 399.75 686.464844 399.75 749.839844 L 420 749.839844 C 420 675.285156 359.558594 614.839844 285 614.839844 Z M 285 635.089844 " fill-opacity="1" fill-rule="nonzero"/></g><g fill="#ffffff" fill-opacity="1"><g transform="translate(529.90118, 797.344871)"><g><path d="M 65.921875 0 L 58.65625 -20.9375 L 27.40625 -20.9375 L 20.140625 0 L 2.96875 0 L 32.875 -81.953125 L 53.125 -81.953125 L 82.921875 0 Z M 43 -69.328125 L 42.65625 -68.0625 C 42.269531 -66.65625 41.800781 -65.0625 41.25 -63.28125 C 40.707031 -61.5 37.375 -51.691406 31.25 -33.859375 L 54.8125 -33.859375 L 46.71875 -57.40625 L 44.21875 -65.328125 Z M 43 -69.328125 "/></g></g></g><g fill="#ffffff" fill-opacity="1"><g transform="translate(620.53971, 797.344871)"><g><path d="M 74.828125 -23.609375 C 74.828125 -15.585938 71.847656 -9.453125 65.890625 -5.203125 C 59.941406 -0.960938 51.207031 1.15625 39.6875 1.15625 C 29.175781 1.15625 20.929688 -0.703125 14.953125 -4.421875 C 8.984375 -8.140625 5.144531 -13.78125 3.4375 -21.34375 L 20.015625 -24.078125 C 21.140625 -19.734375 23.332031 -16.582031 26.59375 -14.625 C 29.851562 -12.664062 34.375 -11.6875 40.15625 -11.6875 C 52.132812 -11.6875 58.125 -15.332031 58.125 -22.625 C 58.125 -24.945312 57.4375 -26.863281 56.0625 -28.375 C 54.6875 -29.894531 52.75 -31.15625 50.25 -32.15625 C 47.75 -33.164062 42.945312 -34.390625 35.84375 -35.828125 C 29.71875 -37.265625 25.453125 -38.414062 23.046875 -39.28125 C 20.640625 -40.15625 18.460938 -41.179688 16.515625 -42.359375 C 14.578125 -43.546875 12.929688 -44.972656 11.578125 -46.640625 C 10.222656 -48.316406 9.164062 -50.273438 8.40625 -52.515625 C 7.65625 -54.765625 7.28125 -57.347656 7.28125 -60.265625 C 7.28125 -67.671875 10.0625 -73.335938 15.625 -77.265625 C 21.1875 -81.203125 29.285156 -83.171875 39.921875 -83.171875 C 50.078125 -83.171875 57.707031 -81.582031 62.8125 -78.40625 C 67.914062 -75.226562 71.203125 -69.972656 72.671875 -62.640625 L 56.03125 -60.375 C 55.175781 -63.90625 53.441406 -66.5625 50.828125 -68.34375 C 48.210938 -70.125 44.457031 -71.015625 39.5625 -71.015625 C 29.164062 -71.015625 23.96875 -67.757812 23.96875 -61.25 C 23.96875 -59.113281 24.519531 -57.367188 25.625 -56.015625 C 26.738281 -54.660156 28.378906 -53.503906 30.546875 -52.546875 C 32.722656 -51.597656 37.128906 -50.40625 43.765625 -48.96875 C 51.640625 -47.300781 57.269531 -45.757812 60.65625 -44.34375 C 64.050781 -42.9375 66.738281 -41.289062 68.71875 -39.40625 C 70.695312 -37.53125 72.207031 -35.28125 73.25 -32.65625 C 74.300781 -30.039062 74.828125 -27.023438 74.828125 -23.609375 Z M 74.828125 -23.609375 "/></g></g></g><g fill="#ffffff" fill-opacity="1"><g transform="translate(704.603381, 797.344871)"><g><path d="M 44.984375 -68.6875 L 44.984375 0 L 27.8125 0 L 27.8125 -68.6875 L 1.34375 -68.6875 L 1.34375 -81.953125 L 71.515625 -81.953125 L 71.515625 -68.6875 Z M 44.984375 -68.6875 "/></g></g></g><g fill="#ffffff" fill-opacity="1"><g transform="translate(781.975836, 797.344871)"><g><path d="M 64.296875 0 L 45.265625 -31.125 L 25.140625 -31.125 L 25.140625 0 L 7.96875 0 L 7.96875 -81.953125 L 48.9375 -81.953125 C 58.707031 -81.953125 66.25 -79.847656 71.5625 -75.640625 C 76.882812 -71.429688 79.546875 -65.394531 79.546875 -57.53125 C 79.546875 -51.789062 77.914062 -46.832031 74.65625 -42.65625 C 71.394531 -38.488281 66.992188 -35.75 61.453125 -34.4375 L 83.625 0 Z M 62.265625 -56.828125 C 62.265625 -64.703125 57.222656 -68.640625 47.140625 -68.640625 L 25.140625 -68.640625 L 25.140625 -44.4375 L 47.59375 -44.4375 C 52.40625 -44.4375 56.050781 -45.519531 58.53125 -47.6875 C 61.019531 -49.863281 62.265625 -52.910156 62.265625 -56.828125 Z M 62.265625 -56.828125 "/></g></g></g><g fill="#ffffff" fill-opacity="1"><g transform="translate(872.614355, 797.344871)"><g><path d="M 87.6875 -41.359375 C 87.6875 -32.828125 86 -25.320312 82.625 -18.84375 C 79.25 -12.363281 74.421875 -7.410156 68.140625 -3.984375 C 61.859375 -0.554688 54.523438 1.15625 46.140625 1.15625 C 33.265625 1.15625 23.171875 -2.628906 15.859375 -10.203125 C 8.546875 -17.785156 4.890625 -28.171875 4.890625 -41.359375 C 4.890625 -54.503906 8.535156 -64.757812 15.828125 -72.125 C 23.117188 -79.488281 33.265625 -83.171875 46.265625 -83.171875 C 59.253906 -83.171875 69.40625 -79.445312 76.71875 -72 C 84.03125 -64.5625 87.6875 -54.347656 87.6875 -41.359375 Z M 70.171875 -41.359375 C 70.171875 -50.203125 68.078125 -57.132812 63.890625 -62.15625 C 59.703125 -67.175781 53.828125 -69.6875 46.265625 -69.6875 C 38.578125 -69.6875 32.640625 -67.191406 28.453125 -62.203125 C 24.265625 -57.222656 22.171875 -50.273438 22.171875 -41.359375 C 22.171875 -32.359375 24.3125 -25.269531 28.59375 -20.09375 C 32.882812 -14.914062 38.734375 -12.328125 46.140625 -12.328125 C 53.828125 -12.328125 59.753906 -14.847656 63.921875 -19.890625 C 68.085938 -24.929688 70.171875 -32.085938 70.171875 -41.359375 Z M 70.171875 -41.359375 "/></g></g></g><g fill="#ffffff" fill-opacity="1"><g transform="translate(969.885917, 797.344871)"><g><path d="M 7.96875 0 L 7.96875 -81.953125 L 25.140625 -81.953125 L 25.140625 -13.265625 L 69.125 -13.265625 L 69.125 0 Z M 7.96875 0 "/></g></g></g><g fill="#ffffff" fill-opacity="1"><g transform="translate(1047.258372, 797.344871)"><g><path d="M 7.96875 0 L 7.96875 -81.953125 L 25.140625 -81.953125 L 25.140625 0 Z M 7.96875 0 "/></g></g></g><g fill="#ffffff" fill-opacity="1"><g transform="translate(1084.948935, 797.344871)"><g><path d="M 57.90625 0 L 22.171875 -63.109375 C 22.867188 -56.984375 23.21875 -52.0625 23.21875 -48.34375 L 23.21875 0 L 7.96875 0 L 7.96875 -81.953125 L 27.578125 -81.953125 L 63.828125 -18.328125 C 63.128906 -24.179688 62.78125 -29.507812 62.78125 -34.3125 L 62.78125 -81.953125 L 78.03125 -81.953125 L 78.03125 0 Z M 57.90625 0 "/></g></g></g><g fill="#ffffff" fill-opacity="1"><g transform="translate(1175.587477, 797.344871)"><g><path d="M 64.703125 0 L 35.265625 -37.640625 L 25.140625 -29.890625 L 25.140625 0 L 7.96875 0 L 7.96875 -81.953125 L 25.140625 -81.953125 L 25.140625 -44.78125 L 62.09375 -81.953125 L 82.109375 -81.953125 L 47.078125 -47.296875 L 84.953125 0 Z M 64.703125 0 "/></g></g></g></svg>